<?xml version="1.0" encoding="UTF-8"?>
<svg width="151px" height="31px" viewBox="0 0 151 31" version="1.1" xmlns="http://www.w3.org/2000/svg" xmlns:xlink="http://www.w3.org/1999/xlink">
    <!-- Generator: sketchtool 53.1 (72631) - https://sketchapp.com -->
    <title>E458D598-21F9-4E9D-8A6E-A5B2348FC369</title>
    <desc>Created with sketchtool.</desc>
    <defs>
        <linearGradient x1="69.3941999%" y1="37.2913934%" x2="5.75988187%" y2="62.6085379%" id="linearGradient-1">
            <stop stop-color="#29D2DC" offset="0%"></stop>
            <stop stop-color="#80F156" offset="100%"></stop>
        </linearGradient>
        <linearGradient x1="16.3228354%" y1="32.3804547%" x2="64.9285206%" y2="66.3699755%" id="linearGradient-2">
            <stop stop-color="#A7FF18" offset="0%"></stop>
            <stop stop-color="#5DAE00" offset="100%"></stop>
        </linearGradient>
        <linearGradient x1="56.3639604%" y1="27.8680181%" x2="56.3639604%" y2="86.5528264%" id="linearGradient-3">
            <stop stop-color="#9FFFCE" offset="0%"></stop>
            <stop stop-color="#C8FD5A" offset="100%"></stop>
        </linearGradient>
    </defs>
    <g id="📤-Styleguide-to-Build" stroke="none" stroke-width="1" fill="none" fill-rule="evenodd">
        <g transform="translate(-555.000000, -2837.000000)" id="logo">
            <g transform="translate(555.000000, 2837.000000)">
                <g id="UI-Kit/Logos/circle">
                    <g id="logo">
                        <path d="M0.002110971,15.2461753 C0.137682219,6.80283859 7.02437327,-1.13686838e-13 15.5,-1.13686838e-13 C19.6457907,-1.13686838e-13 23.4114502,1.62763682 26.1927327,4.27878184 C25.3915801,3.5600744 24.3327327,3.12286885 23.1717377,3.12286885 C20.6722308,3.12286885 18.6459723,5.14912736 18.6459723,7.64867339 C18.6459723,8.84895586 19.1132787,9.94009332 19.8758474,10.7501589 C18.7251728,9.68955233 17.1883077,9.0416797 15.5,9.0416797 C11.9875788,9.0416797 9.13006683,11.8455965 9.04371248,15.3372207 C8.95798361,12.9130832 6.96585246,10.9741955 4.52083985,10.9741955 C2.10647541,10.9741955 0.133773014,12.8647264 0.002110971,15.2461753" id="Fill-10" fill="url(#linearGradient-1)"></path>
                        <path d="M0.00992656,15.1311605 C0.148626008,12.8026531 2.11604083,10.9563719 4.52270953,10.9563719 C6.9882255,10.9563719 8.99274391,12.8940466 9.04236643,15.3028138 C9.04285776,15.3142717 9.0433065,15.3257408 9.04371248,15.3372207 C9.04352194,15.3449771 9.04334424,15.3527367 9.04317964,15.3604995 C9.04326523,15.3717601 9.0433081,15.3830306 9.0433081,15.394311 C9.0433081,15.4343415 9.04276822,15.4742482 9.04169524,15.5140246 C9.04180525,15.5637401 9.04249757,15.613325 9.04371248,15.6627793 C9.13006683,19.1544035 11.9875788,21.9583203 15.5,21.9583203 C17.217744,21.9583203 18.7788071,21.2876179 19.9357755,20.1939395 C19.1965839,20.9994704 18.7453443,22.0735246 18.7453443,23.252971 C18.7453443,25.752517 20.7716028,27.7788146 23.2711097,27.7788146 C24.4527844,27.7788146 25.5285586,27.3258941 26.3345977,26.5842787 C23.5401412,29.3161879 19.7167037,31 15.5,31 C7.02437327,31 0.137682219,24.1971614 0.002110971,15.7538247 C0.00078184111,15.6693859 -4.26325641e-14,15.5847516 -4.26325641e-14,15.5 C-4.26325641e-14,15.4152484 0.00078184111,15.3306141 0.002110971,15.2461753 C0.00423775087,15.207707 0.00684491328,15.1693667 0.00992656,15.1311605 Z" id="Combined-Shape" fill="url(#linearGradient-2)"></path>
                        <path d="M24.8429711,27.4983552 C24.3464203,27.6876011 23.8078853,27.791205 23.2452531,27.791205 C20.7579713,27.791205 18.7416311,25.7664298 18.7416311,23.2687431 C18.7416311,22.8549163 18.796982,22.4540716 18.9006551,22.073267 C19.0920905,21.3623972 19.4523549,20.720745 19.9357755,20.1939395 C19.9606353,20.1704309 19.9853097,20.1467286 20.0097958,20.1228339 C20.0473452,20.0838996 20.0855854,20.0456411 20.1244964,20.0080782 C20.151303,19.9805802 20.1778662,19.952843 20.2041816,19.9248689 C21.2918008,18.769034 21.9583203,17.2123884 21.9583203,15.5 C21.9583203,13.7579798 21.268541,12.1770971 20.1473026,11.0154376 C20.9488462,11.7359823 22.0091009,12.1744779 23.1717377,12.1744779 C25.6712837,12.1744779 27.6975813,10.1481803 27.6975813,7.64867339 C27.6975813,6.4504628 27.2318777,5.36108449 26.4717327,4.55148802 C29.2698638,7.35552207 31,11.2257137 31,15.5 C31,19.7031387 29.3269773,23.5154741 26.6106267,26.307546 C26.5197768,26.4009369 26.4277541,26.4931942 26.3345977,26.5842787 C25.9055713,26.9790146 25.4001274,27.2919615 24.8429711,27.4983552 Z" id="Combined-Shape" fill="url(#linearGradient-3)"></path>
                        <path d="M18.620782,7.64712708 C18.620782,8.85306447 19.0909479,9.94934263 19.8581828,10.7632247 C19.9517912,10.8493967 20.0428824,10.9382788 20.1312991,11.0297532 C20.9377472,11.7536927 22.0044896,12.1942542 23.1742406,12.1942542 C25.6890813,12.1942542 27.7277778,10.15841 27.7277778,7.64712708 C27.7277778,6.44327133 27.2592245,5.3487606 26.4944282,4.53534986 C26.4019997,4.44285433 26.30847,4.3515371 26.213721,4.26135887 C25.4076661,3.53926537 24.3423396,3.1 23.1742406,3.1 C20.6594392,3.1 18.620782,5.13580488 18.620782,7.64712708" id="Fill-13" fill="#63FBF5"></path>
                    </g>
                </g>
                <g id="wording" transform="translate(40.000000, 1.000000)" fill="#4D4A40" fill-rule="nonzero">
                    <rect id="Rectangle" x="48.519375" y="0" width="4.854375" height="26.9314286"></rect>
                    <polygon id="Path" points="16.92375 0 16.92375 11 4.854375 11 4.854375 0 -5.5067062e-14 0 -5.5067062e-14 26.9314286 4.854375 26.9314286 4.854375 15.9314286 16.92375 15.9314286 16.92375 26.9314286 21.77625 26.9314286 21.77625 0"></polygon>
                    <g id="Group" transform="translate(24.780000, 8.118095)">
                        <path d="M14.1525,6.85714286 C13.0978498,5.42056082 11.4353449,4.57682055 9.67125,4.58285714 C6.834375,4.58285714 5.004375,6.97142857 5.004375,9.62666667 C5.004375,12.5104762 7.0575,14.6342857 9.78375,14.6342857 C11.5206163,14.6452421 13.1526492,13.7913683 14.1525,12.3485714 L14.1525,6.85714286 Z M19.006875,18.8057143 L14.34,18.8057143 L14.34,17.3333333 C12.9387274,18.5568056 11.1456649,19.2179462 9.298125,19.192381 C6.68698952,19.1985637 4.19885317,18.0658467 2.465625,16.0819048 C0.959542101,14.2824456 0.138018938,11.9943233 0.15,9.63238095 C0.15,4.20952381 4.108125,0.0361904762 9.0375,0.0361904762 C10.9650576,0.0140708271 12.8399926,0.674787455 14.34,1.9047619 L14.34,0.424761905 L19.006875,0.424761905 L19.006875,18.8057143 Z" id="Shape"></path>
                        <path d="M33.290625,18.8133333 L33.290625,0.417142857 L37.9575,0.417142857 L37.9575,1.9047619 C39.3016952,0.685080666 41.0472094,0.021737043 42.849375,0.0457142857 C45.1986741,0.0357259312 47.430273,1.08929376 48.9375,2.92 C50.394375,1.36571429 52.670625,0.0380952381 55.359375,0.0380952381 C57.860625,0.0380952381 60.25125,1.18095238 61.70625,2.99619048 C62.865,4.43809524 63.53625,6.3352381 63.53625,9.06666667 L63.53625,18.8133333 L58.6875,18.8133333 L58.6875,8.87619048 C58.6875,7.20761905 58.351875,6.37333333 57.79125,5.72761905 C57.0826818,4.97301411 56.0931022,4.55789208 55.066875,4.5847619 C52.97625,4.5847619 51.331875,6.06285714 50.698125,7.01142857 C50.7903497,7.69070844 50.8398252,8.37527309 50.84625,9.06095238 L50.84625,18.807619 L45.99375,18.807619 L45.99375,8.87619048 C45.99375,7.20761905 45.65625,6.37333333 45.0975,5.72761905 C44.3882184,4.9729181 43.3980367,4.55782918 42.37125,4.5847619 C40.30875,4.5847619 38.82375,5.98666667 38.1525,6.85904762 L38.1525,18.807619 L33.290625,18.8133333 Z" id="Path"></path>
                        <path d="M80.750625,6.85714286 C79.6959748,5.42056082 78.0334699,4.57682055 76.269375,4.58285714 C73.430625,4.58285714 71.6025,6.97142857 71.6025,9.62666667 C71.6025,12.5104762 73.655625,14.6342857 76.381875,14.6342857 C78.1185875,14.6445892 79.7503402,13.790862 80.750625,12.3485714 L80.750625,6.85714286 Z M85.603125,18.8057143 L80.93625,18.8057143 L80.93625,17.3333333 C79.535908,18.5571403 77.7432935,19.2183617 75.89625,19.192381 C73.2846673,19.1981251 70.7961229,18.0655332 69.061875,16.0819048 C67.5582951,14.2819732 66.7382516,11.9949431 66.75,9.63428571 C66.75,4.21142857 70.708125,0.0380952381 75.635625,0.0380952381 C77.5620825,0.0129638032 79.436996,0.670305336 80.938125,1.89714286 L80.938125,0.417142857 L85.605,0.417142857 L85.603125,18.8057143 Z" id="Shape"></path>
                    </g>
                </g>
            </g>
        </g>
    </g>
</svg>